<?xml version="1.0" encoding="utf-8"?>
<!-- Generator: Adobe Illustrator 17.0.0, SVG Export Plug-In . SVG Version: 6.00 Build 0)  -->
<!DOCTYPE svg PUBLIC "-//W3C//DTD SVG 1.1//EN" "http://www.w3.org/Graphics/SVG/1.1/DTD/svg11.dtd">
<svg version="1.1" id="Layer_1" xmlns="http://www.w3.org/2000/svg" xmlns:xlink="http://www.w3.org/1999/xlink" x="0px" y="0px"
	 width="256px" height="2048px" viewBox="0 0 256 2048" enable-background="new 0 0 256 2048" xml:space="preserve">
<path fill="#FFFFFF" d="M64,101.802c13.923,0,25.25-11.327,25.25-25.25c0-4.939-1.401-9.596-3.901-13.54
	c-0.071-0.116-0.147-0.228-0.229-0.337c-2.453-3.733-5.895-6.807-10.087-8.829v-5.869C77.261,47.709,79,45.83,79,43.531v-5.5
	c0-2.481-2.019-4.5-4.5-4.5h-1.939l0.362-2.057c0.229-1.31-0.129-2.645-0.986-3.67c-0.857-1.02-2.113-1.605-3.446-1.605h-8.982
	c-1.333,0-2.588,0.585-3.447,1.607c-0.857,1.022-1.216,2.361-0.984,3.673l0.362,2.052H53.5c-2.481,0-4.5,2.019-4.5,4.5v5.5
	c0,2.299,1.739,4.179,3.967,4.446v5.869C44.265,58.043,38.75,66.744,38.75,76.552C38.75,90.475,50.077,101.802,64,101.802z"/>
<path fill="#FFFFFF" d="M64,222.168c14.939,0,27.094-12.154,27.094-27.094c0-5.849-1.869-11.266-5.032-15.699l1.582-1.582
	c0.851-0.85,1.319-1.98,1.319-3.183s-0.469-2.333-1.318-3.182c-0.85-0.85-1.979-1.318-3.182-1.318s-2.332,0.468-3.182,1.318
	l-1.583,1.583c-1.717-1.225-3.581-2.255-5.561-3.057c1.119-0.819,1.855-2.133,1.855-3.623c0-2.481-2.019-4.5-4.5-4.5h-3.816h-7.353
	h-3.815c-2.481,0-4.5,2.019-4.5,4.5c0,1.49,0.736,2.803,1.855,3.623c-9.931,4.022-16.957,13.763-16.957,25.119
	C36.906,210.014,49.06,222.168,64,222.168z"/>
<path fill="#FFFFFF" d="M34.501,442.496c-5.338,2.84-8.705,8.376-8.705,14.523c0,9.082,7.389,16.471,16.471,16.471h44.448
	c8.542,0,15.491-6.949,15.491-15.492c-0.001-6.857-4.524-12.808-10.88-14.791c-0.627-11.519-10.196-20.698-21.868-20.698
	c-7.302,0-14.002,3.577-18.05,9.488c-1.161-0.311-2.354-0.471-3.537-0.471c-1.052,0-2.1,0.125-3.116,0.371
	C39.755,433.114,35.866,437.191,34.501,442.496z"/>
<path fill="#FFFFFF" d="M33.829,316.455h32.31c7.206,0,13.069-5.863,13.069-13.069s-5.863-13.069-13.069-13.069
	S53.07,296.18,53.07,303.386c0,1.795,1.056,3.348,2.58,4.069H33.83c-2.481,0-4.5,2.019-4.5,4.5S31.348,316.455,33.829,316.455z
	 M62.07,303.386c0-2.244,1.825-4.069,4.069-4.069c2.244,0,4.069,1.825,4.069,4.069s-1.825,4.069-4.069,4.069H59.49
	C61.014,306.733,62.07,305.181,62.07,303.386z"/>
<path fill="#FFFFFF" d="M28.39,327.333h62.651c7.206,0,13.069-5.863,13.069-13.069c0-7.207-5.863-13.069-13.069-13.069
	s-13.069,5.863-13.069,13.069c0,1.794,1.056,3.347,2.578,4.069H28.39c-2.481,0-4.5,2.019-4.5,4.5S25.909,327.333,28.39,327.333z
	 M86.972,314.264c0-2.244,1.825-4.069,4.069-4.069s4.069,1.826,4.069,4.069s-1.825,4.069-4.069,4.069h-6.647
	C85.916,317.611,86.972,316.059,86.972,314.264z"/>
<path fill="#FFFFFF" d="M82.649,349.684c6.007,0,10.894-4.887,10.894-10.894s-4.887-10.894-10.894-10.894H44.722
	c-2.481,0-4.5,2.019-4.5,4.5s2.019,4.5,4.5,4.5h27.451c-0.268,0.576-0.418,1.218-0.418,1.894
	C71.755,344.797,76.643,349.684,82.649,349.684z M82.649,336.896c1.044,0,1.894,0.85,1.894,1.894s-0.85,1.894-1.894,1.894
	c-1.045,0-1.895-0.85-1.895-1.894c0-0.676-0.15-1.318-0.418-1.894H82.649z"/>
<path fill="#FFFFFF" d="M88.005,580.5h7.088c2.481,0,4.5-2.019,4.5-4.5s-2.019-4.5-4.5-4.5h-7.088c-0.891,0-1.718,0.268-2.417,0.717
	c-0.225-1.285-0.555-2.534-0.994-3.732c0.066,0.003,0.13,0.013,0.197,0.013c0.787,0,1.563-0.208,2.249-0.603l6.138-3.543
	c2.148-1.24,2.887-3.998,1.647-6.146c-0.801-1.389-2.295-2.252-3.899-2.252c-0.788,0-1.565,0.209-2.248,0.603L82.54,560.1
	c-0.775,0.447-1.358,1.096-1.74,1.838c-0.83-0.99-1.746-1.906-2.736-2.736c0.754-0.39,1.399-0.982,1.835-1.738l3.546-6.14
	c0.601-1.041,0.76-2.253,0.449-3.414c-0.311-1.162-1.056-2.133-2.096-2.733c-0.685-0.395-1.462-0.604-2.25-0.604
	c-1.604,0-3.099,0.863-3.897,2.25l-3.546,6.14c-0.434,0.753-0.629,1.595-0.591,2.443c-1.197-0.438-2.445-0.769-3.729-0.993
	c0.449-0.7,0.717-1.526,0.717-2.417v-7.088c0-2.481-2.019-4.5-4.5-4.5s-4.5,2.019-4.5,4.5v7.088c0,0.891,0.268,1.718,0.717,2.417
	c-1.284,0.224-2.532,0.555-3.73,0.993c0.038-0.848-0.157-1.692-0.592-2.444l-3.543-6.137c-0.801-1.389-2.294-2.251-3.898-2.251
	c-0.786,0-1.563,0.208-2.25,0.603c-1.041,0.601-1.786,1.571-2.097,2.732c-0.311,1.162-0.151,2.375,0.45,3.415l3.544,6.138
	c0.437,0.757,1.083,1.349,1.836,1.739c-0.988,0.829-1.903,1.743-2.732,2.731c-0.391-0.757-0.984-1.391-1.739-1.828l-6.142-3.546
	c-0.684-0.395-1.461-0.604-2.25-0.604c-1.602,0-3.096,0.861-3.898,2.249c-0.602,1.041-0.762,2.254-0.451,3.416
	c0.311,1.161,1.056,2.131,2.097,2.732l6.141,3.545c0.684,0.396,1.462,0.605,2.251,0.605c0.064,0,0.126-0.01,0.19-0.013
	c-0.438,1.197-0.768,2.445-0.993,3.728c-0.7-0.449-1.526-0.717-2.417-0.717h-7.088c-2.481,0-4.5,2.019-4.5,4.5s2.019,4.5,4.5,4.5
	h7.088c0.891,0,1.718-0.268,2.417-0.717c0.225,1.285,0.555,2.534,0.994,3.732c-0.066-0.003-0.13-0.013-0.196-0.013
	c-0.788,0-1.565,0.208-2.25,0.604l-6.138,3.544c-1.041,0.601-1.786,1.571-2.097,2.732c-0.311,1.162-0.151,2.375,0.45,3.414
	c0.801,1.389,2.295,2.251,3.898,2.251c0.789,0,1.567-0.209,2.249-0.604l6.138-3.544c0.757-0.437,1.352-1.074,1.743-1.833
	c0.83,0.99,1.746,1.905,2.736,2.735c-0.755,0.39-1.403,0.983-1.841,1.74l-3.542,6.137c-1.239,2.148-0.5,4.905,1.649,6.147
	c0.684,0.394,1.46,0.602,2.247,0.602c1.603,0,3.097-0.862,3.899-2.25l3.542-6.137c0.445-0.77,0.625-1.619,0.587-2.448
	c1.199,0.439,2.45,0.771,3.736,0.995c-0.449,0.7-0.717,1.526-0.717,2.417v7.088c0,2.481,2.019,4.5,4.5,4.5s4.5-2.019,4.5-4.5v-7.088
	c0-0.891-0.268-1.718-0.717-2.417c1.284-0.224,2.532-0.555,3.73-0.993c-0.038,0.848,0.157,1.691,0.592,2.444l3.542,6.136
	c0.801,1.39,2.295,2.253,3.899,2.253c0.789,0,1.567-0.209,2.248-0.603c1.042-0.601,1.787-1.572,2.098-2.734
	c0.311-1.161,0.151-2.373-0.45-3.414l-3.542-6.136c-0.437-0.758-1.083-1.351-1.838-1.741c0.988-0.829,1.902-1.743,2.732-2.731
	c0.391,0.757,0.984,1.392,1.739,1.828l6.142,3.545c0.684,0.396,1.462,0.605,2.251,0.605c1.604,0,3.098-0.863,3.898-2.25
	c0.601-1.041,0.76-2.253,0.449-3.414c-0.311-1.162-1.056-2.133-2.097-2.733l-6.145-3.547c-0.683-0.394-1.461-0.603-2.248-0.603
	c-0.064,0-0.126,0.01-0.19,0.013c0.438-1.197,0.768-2.445,0.993-3.729C86.287,580.232,87.114,580.5,88.005,580.5z"/>
<path fill="#FFFFFF" d="M32.28,978.169c0.8,1.397,2.297,2.265,3.907,2.265c0.784,0,1.558-0.206,2.235-0.595l6.024-3.451v3.107
	c0,2.481,2.019,4.5,4.5,4.5c0.428,0,0.835-0.079,1.228-0.192c0.098,0.381,0.229,0.757,0.433,1.115
	c0.8,1.397,2.297,2.265,3.907,2.265c0.783,0,1.555-0.206,2.235-0.595l2.751-1.576v6.857c0,2.481,2.019,4.5,4.5,4.5
	c2.481,0,4.5-2.019,4.5-4.5v-6.858l2.748,1.574c0.68,0.391,1.454,0.598,2.239,0.598c1.609,0,3.106-0.867,3.907-2.266
	c0.204-0.357,0.335-0.733,0.433-1.113c0.393,0.112,0.799,0.191,1.227,0.191c2.481,0,4.5-2.019,4.5-4.5v-3.108l6.021,3.449
	c0.68,0.391,1.454,0.598,2.239,0.598c1.609,0,3.106-0.867,3.907-2.266c1.231-2.152,0.482-4.907-1.67-6.14l-5.944-3.405l2.669-1.529
	c2.153-1.232,2.902-3.987,1.67-6.141c-0.203-0.354-0.451-0.673-0.734-0.954c0.283-0.281,0.532-0.601,0.735-0.955
	c1.231-2.152,0.482-4.907-1.67-6.14l-2.67-1.529l5.943-3.404c2.153-1.232,2.902-3.987,1.671-6.139
	c-0.798-1.398-2.296-2.267-3.908-2.267c-0.782,0-1.556,0.206-2.234,0.595l-6.025,3.452v-3.108c0-2.481-2.019-4.5-4.5-4.5
	c-0.428,0-0.834,0.079-1.227,0.191c-0.098-0.381-0.229-0.757-0.433-1.114c-0.8-1.397-2.297-2.265-3.907-2.265
	c-0.783,0-1.556,0.206-2.234,0.595l-2.752,1.576v-6.858c0-2.481-2.019-4.5-4.5-4.5s-4.5,2.019-4.5,4.5v6.857l-2.752-1.577
	c-0.68-0.389-1.452-0.594-2.234-0.594c-1.609,0-3.105,0.867-3.907,2.264c-0.205,0.358-0.335,0.734-0.434,1.115
	c-0.393-0.112-0.799-0.192-1.228-0.192c-2.481,0-4.5,2.019-4.5,4.5v3.107l-6.025-3.452c-0.68-0.389-1.452-0.594-2.234-0.594
	c-1.61,0-3.107,0.867-3.907,2.264c-1.232,2.152-0.484,4.907,1.668,6.142l5.943,3.404l-2.671,1.53c-2.152,1.233-2.9,3.988-1.667,6.14
	c0.203,0.354,0.451,0.674,0.734,0.954c-0.283,0.28-0.531,0.599-0.734,0.953c-1.232,2.152-0.484,4.907,1.668,6.142l2.67,1.529
	l-5.944,3.405C31.795,973.263,31.047,976.018,32.28,978.169z M53.446,978.107v-6.875l6.054-3.468v6.875L53.446,978.107z
	 M74.554,978.107L68.5,974.64v-6.875l6.054,3.468V978.107z M85.057,960l-6.002,3.438L73.054,960l6.001-3.438L85.057,960z
	 M74.554,941.893v6.875l-6.054,3.468v-6.875L74.554,941.893z M53.446,941.893l6.054,3.468v6.875l-6.054-3.468V941.893z M42.944,960
	l6.001-3.438L54.946,960l-6,3.437L42.944,960z"/>
<path fill="#FFFFFF" d="M42.85,721.064l-4.251,8.824c-1.077,2.235-0.134,4.929,2.102,6.007c0.606,0.292,1.281,0.446,1.951,0.446
	c1.717,0,3.309-1,4.055-2.547l4.571-9.489c0.505-1.048,0.551-2.193,0.242-3.229h2.057l-4.246,8.813
	c-1.077,2.235-0.134,4.929,2.1,6.006c0.606,0.292,1.282,0.447,1.954,0.447c1.717,0,3.309-1,4.055-2.547l4.572-9.489
	c0.505-1.048,0.551-2.193,0.242-3.229h2.057l-4.245,8.812c-0.522,1.083-0.591,2.304-0.194,3.439s1.212,2.047,2.291,2.567
	c0.607,0.293,1.283,0.449,1.957,0.449c1.717,0,3.308-0.999,4.055-2.547l4.573-9.49c0.505-1.048,0.551-2.194,0.243-3.229h2.054
	l-4.245,8.813c-1.076,2.234-0.134,4.929,2.102,6.007c0.606,0.292,1.281,0.446,1.952,0.446c1.717,0,3.309-1,4.056-2.547l4.571-9.489
	c0.505-1.048,0.551-2.193,0.242-3.229h2.146c8.316,0,15.082-6.766,15.082-15.082c0-6.61-4.354-12.378-10.48-14.354
	c-0.66-11.128-9.924-19.98-21.215-19.98c-7.042,0-13.514,3.433-17.45,9.109c-1.096-0.283-2.219-0.429-3.334-0.429
	c-1.027,0-2.049,0.122-3.04,0.362c-4.848,1.18-8.629,5.122-9.976,10.253c-5.155,2.773-8.405,8.143-8.405,14.095
	C27.049,713.81,34.117,720.942,42.85,721.064z"/>
<path fill="#FFFFFF" d="M104.542,834.402c0-2.481-2.019-4.5-4.5-4.5h-7.155c-0.912,0-1.76,0.277-2.469,0.745
	c-0.23-1.336-0.575-2.634-1.035-3.877c0.087,0.005,0.172,0.017,0.26,0.017c0.789,0,1.567-0.209,2.249-0.604l6.194-3.576
	c1.042-0.601,1.787-1.571,2.098-2.733c0.311-1.16,0.151-2.372-0.448-3.411c-0.801-1.39-2.295-2.253-3.899-2.253
	c-0.789,0-1.567,0.209-2.249,0.604l-6.194,3.576c-0.776,0.447-1.385,1.1-1.775,1.884c-0.859-1.029-1.809-1.979-2.838-2.837
	c0.778-0.389,1.445-0.992,1.892-1.766l3.577-6.199c1.239-2.148,0.501-4.905-1.645-6.145c-0.684-0.396-1.463-0.605-2.252-0.605
	c-1.604,0-3.099,0.863-3.898,2.251l-3.577,6.199c-0.455,0.788-0.638,1.658-0.589,2.505c-1.242-0.459-2.538-0.803-3.874-1.033
	c0.469-0.71,0.747-1.559,0.747-2.472v-7.153c0-2.481-2.019-4.5-4.5-4.5s-4.5,2.019-4.5,4.5v7.153c0,0.913,0.277,1.762,0.747,2.472
	c-1.336,0.23-2.632,0.575-3.875,1.034c0.05-0.848-0.133-1.719-0.589-2.508l-3.575-6.195c-0.801-1.389-2.295-2.252-3.899-2.252
	c-0.787,0-1.564,0.208-2.25,0.603c-2.148,1.24-2.888,3.998-1.647,6.147l3.577,6.196c0.447,0.776,1.115,1.379,1.893,1.767
	c-1.029,0.858-1.979,1.807-2.837,2.836c-0.39-0.781-0.998-1.432-1.771-1.879l-6.202-3.581c-0.683-0.395-1.46-0.603-2.248-0.603
	c-1.604,0-3.098,0.862-3.898,2.25c-0.602,1.041-0.761,2.254-0.45,3.415s1.056,2.131,2.097,2.731l6.199,3.579
	c0.16,0.093,0.326,0.173,0.496,0.245c-1.747,0.893-3.317,2.076-4.671,3.471h-3.978c-2.481,0-4.5,2.019-4.5,4.5
	c0,2.235,1.642,4.08,3.78,4.427c-0.111,0.564-0.197,1.136-0.252,1.717c-4.956,1.845-8.345,6.579-8.345,12.059
	c0,7.1,5.775,12.875,12.874,12.875h33.864c7.511,0,13.621-6.11,13.621-13.621c0-0.312-0.011-0.622-0.032-0.93l5.299,3.059
	c0.684,0.396,1.462,0.604,2.251,0.604c1.604,0,3.099-0.863,3.898-2.251c1.24-2.149,0.501-4.907-1.647-6.146l-6.196-3.578
	c-0.685-0.396-1.464-0.606-2.254-0.606c-0.085,0-0.168,0.012-0.252,0.017c0.458-1.242,0.803-2.537,1.033-3.871
	c0.71,0.468,1.557,0.745,2.469,0.745h7.155C102.523,838.902,104.542,836.884,104.542,834.402z"/>
<path fill="#FFFFFF" d="M53.884,1123.2c9.096,0,17.003-5.17,20.951-12.722c1.232,0.199,2.494,0.306,3.781,0.306
	c13.029,0,23.629-10.6,23.629-23.629c0-4.892-1.494-9.441-4.05-13.215l0.928-0.928c1.755-1.754,1.755-4.609,0-6.363
	c-0.85-0.851-1.979-1.318-3.182-1.318s-2.332,0.468-3.182,1.318l-0.928,0.928c-1.077-0.729-2.22-1.366-3.412-1.912
	c0.64-0.778,1.041-1.76,1.041-2.843c0-2.481-2.019-4.5-4.5-4.5h-3.231h-6.226h-3.229c-2.401,0-4.35,1.894-4.476,4.264
	c-0.614-1.756-2.269-3.027-4.232-3.027h-1.368l0.26-1.478c0.232-1.315-0.127-2.656-0.984-3.675
	c-0.857-1.021-2.114-1.607-3.447-1.607h-8.28c-1.332,0-2.587,0.585-3.447,1.606c-0.856,1.021-1.215,2.359-0.985,3.673l0.26,1.48
	h-1.369c-2.481,0-4.5,2.019-4.5,4.5v5.07c0,2.193,1.578,4.019,3.658,4.415v4.875c-8.027,3.967-13.107,12.059-13.107,21.152
	C30.255,1112.601,40.855,1123.2,53.884,1123.2z M68.064,1066.022v-1.65c0.176,0.476,0.432,0.907,0.749,1.292
	C68.561,1065.779,68.311,1065.898,68.064,1066.022z"/>
<path fill="#FFFFFF" d="M115.271,1210.156l-9.597-3.611c1.207-2.42,2.027-5.077,2.342-7.908c0.102-0.922-0.136-1.838-0.634-2.606
	c0.423-0.634,0.678-1.389,0.678-2.207c0-0.297-0.032-0.59-0.096-0.875c-1.519-11.704-11.529-20.504-23.369-20.504
	c-4.704,0-9.096,1.391-12.794,3.781l-5.335-11.77c-0.729-1.606-2.322-2.645-4.061-2.645l-0.184,0.005
	c-1.825,0.059-3.42,1.201-4.065,2.912l-7.893,20.969l-20.971-7.891c-0.508-0.19-1.04-0.286-1.581-0.286
	c-1.241,0-2.438,0.52-3.284,1.425c-1.249,1.333-1.568,3.27-0.814,4.933l9.248,20.403l-20.407,9.253
	c-1.663,0.755-2.698,2.422-2.638,4.247c0.061,1.824,1.204,3.419,2.913,4.062l8.008,3.013c-0.85,2.031-1.432,4.21-1.687,6.501
	c-0.105,0.932,0.139,1.857,0.648,2.632c-0.509,0.774-0.753,1.699-0.648,2.628c1.326,11.937,11.392,20.938,23.415,20.938
	c4.714,0,9.117-1.398,12.821-3.799l6.247,13.785c0.726,1.607,2.335,2.646,4.1,2.646l0.146-0.003
	c1.825-0.059,3.422-1.201,4.066-2.912l7.89-20.97l20.974,7.892c0.507,0.189,1.038,0.286,1.579,0.286c1.242,0,2.439-0.52,3.287-1.425
	c1.247-1.332,1.566-3.268,0.813-4.933l-9.25-20.406l20.405-9.248c1.667-0.754,2.704-2.422,2.642-4.245
	C118.125,1212.397,116.982,1210.801,115.271,1210.156z M87.378,1221.351c-0.266,0.116-0.52,0.258-0.759,0.423
	c-1.788,1.238-2.435,3.575-1.537,5.558l6.622,14.61l-15.012-5.648c-0.51-0.191-1.043-0.289-1.586-0.289
	c-1.862,0-3.556,1.172-4.212,2.916l-5.648,15.014l-3.136-6.92c2.009-3.029,3.348-6.556,3.774-10.393
	c0.103-0.921-0.133-1.837-0.63-2.606c0.424-0.635,0.675-1.394,0.675-2.212c0-0.294-0.032-0.586-0.096-0.872
	c-1.518-11.705-11.528-20.507-23.369-20.507c-0.531,0-1.054,0.039-1.577,0.073c2.101-1.094,3.018-3.647,2.029-5.832l-6.62-14.607
	l15.016,5.65c0.507,0.189,1.039,0.285,1.578,0.285c1.865,0,3.558-1.172,4.212-2.915l5.651-15.014l2.219,4.894
	c-2.019,3.036-3.365,6.574-3.791,10.426c-0.103,0.929,0.142,1.853,0.649,2.626c-0.509,0.775-0.753,1.699-0.648,2.628
	c1.326,11.937,11.392,20.938,23.415,20.938c5.795,0,11.124-2.105,15.251-5.608l2.087,0.785
	C101.934,1214.754,87.74,1221.187,87.378,1221.351z"/>
<path fill="none" stroke="#666666" stroke-width="3" stroke-linecap="round" stroke-linejoin="round" stroke-miterlimit="10" d="
	M57.467,43.532v13.336c-8.256,2.739-14.217,10.51-14.217,19.684c0,11.46,9.29,20.75,20.75,20.75s20.75-9.29,20.75-20.75
	c0-9.175-5.961-16.945-14.217-19.684V43.532"/>
<rect x="53.5" y="38.031" fill="none" stroke="#666666" stroke-width="3" stroke-linecap="round" stroke-linejoin="round" stroke-miterlimit="10" width="21" height="5.5"/>
<polyline fill="none" stroke="#666666" stroke-width="3" stroke-linecap="round" stroke-linejoin="round" stroke-miterlimit="10" points="
	67.199,38.031 68.491,30.698 64.022,30.698 63.978,30.698 59.509,30.698 60.801,38.031 "/>
<path fill="none" stroke="#666666" stroke-width="3" stroke-linecap="round" stroke-linejoin="round" stroke-miterlimit="10" d="
	M73.624,74.653C69.714,66.975,64,73.771,64,73.771s-5.714-6.796-9.624,0.882c-2.513,4.935,5.328,12.84,9.624,14.173
	C68.296,87.493,76.136,79.588,73.624,74.653z"/>
<line fill="none" stroke="#666666" stroke-width="3" stroke-linecap="round" stroke-linejoin="round" stroke-miterlimit="10" x1="46.542" y1="65.35" x2="81.522" y2="65.35"/>
<circle fill="none" stroke="#666666" stroke-width="3" stroke-linecap="round" stroke-linejoin="round" stroke-miterlimit="10" cx="64" cy="195.074" r="22.594"/>
<rect x="60.323" y="166.332" fill="none" stroke="#666666" stroke-width="3" stroke-linecap="round" stroke-linejoin="round" stroke-miterlimit="10" width="7.353" height="6.148"/>
<line fill="none" stroke="#666666" stroke-width="3" stroke-linecap="round" stroke-linejoin="round" stroke-miterlimit="10" x1="56.508" y1="166.332" x2="71.492" y2="166.332"/>
<line fill="none" stroke="#666666" stroke-width="3" stroke-linecap="round" stroke-linejoin="round" stroke-miterlimit="10" x1="64" y1="195.074" x2="64" y2="178.251"/>
<line fill="none" stroke="#666666" stroke-width="3" stroke-linecap="round" stroke-linejoin="round" stroke-miterlimit="10" x1="79.976" y1="179.098" x2="84.463" y2="174.611"/>
<path fill="none" stroke="#666666" stroke-width="3" stroke-linecap="round" stroke-linejoin="round" stroke-miterlimit="10" d="
	M86.714,447.007c-0.017,0-0.033,0.002-0.05,0.003c0.127-0.848,0.194-1.716,0.194-2.6c0-9.61-7.79-17.4-17.4-17.4
	c-7.27,0-13.496,4.461-16.098,10.793c-2.225-1.539-4.907-2.174-7.542-1.533c-4.135,1.006-6.929,4.849-7.301,9.386
	c-4.773,1.575-8.221,6.063-8.221,11.363c0,6.611,5.359,11.971,11.971,11.971h44.448c6.07,0,10.991-4.921,10.991-10.991
	C97.705,451.928,92.784,447.007,86.714,447.007z"/>
<path fill="none" stroke="#666666" stroke-width="3" stroke-linecap="round" stroke-linejoin="round" stroke-miterlimit="10" d="
	M33.829,311.955h32.31c4.733,0,8.569-3.837,8.569-8.569s-3.837-8.569-8.569-8.569s-8.569,3.837-8.569,8.569"/>
<path fill="none" stroke="#666666" stroke-width="3" stroke-linecap="round" stroke-linejoin="round" stroke-miterlimit="10" d="
	M28.39,322.833h62.651c4.733,0,8.569-3.837,8.569-8.569s-3.837-8.569-8.569-8.569s-8.569,3.837-8.569,8.569"/>
<path fill="none" stroke="#666666" stroke-width="3" stroke-linecap="round" stroke-linejoin="round" stroke-miterlimit="10" d="
	M44.722,332.396h37.927c3.531,0,6.394,2.863,6.394,6.394s-2.863,6.394-6.394,6.394s-6.394-2.863-6.394-6.394"/>
<circle fill="none" stroke="#666666" stroke-width="3" stroke-linecap="round" stroke-linejoin="round" stroke-miterlimit="10" cx="64" cy="576" r="17.421"/>
<line fill="none" stroke="#666666" stroke-width="3" stroke-linecap="round" stroke-linejoin="round" stroke-miterlimit="10" x1="64" y1="551.995" x2="64" y2="544.907"/>
<line fill="none" stroke="#666666" stroke-width="3" stroke-linecap="round" stroke-linejoin="round" stroke-miterlimit="10" x1="64" y1="607.093" x2="64" y2="600.005"/>
<line fill="none" stroke="#666666" stroke-width="3" stroke-linecap="round" stroke-linejoin="round" stroke-miterlimit="10" x1="51.998" y1="555.212" x2="48.454" y2="549.073"/>
<line fill="none" stroke="#666666" stroke-width="3" stroke-linecap="round" stroke-linejoin="round" stroke-miterlimit="10" x1="79.546" y1="602.927" x2="76.002" y2="596.788"/>
<line fill="none" stroke="#666666" stroke-width="3" stroke-linecap="round" stroke-linejoin="round" stroke-miterlimit="10" x1="43.217" y1="564.001" x2="37.073" y2="560.454"/>
<line fill="none" stroke="#666666" stroke-width="3" stroke-linecap="round" stroke-linejoin="round" stroke-miterlimit="10" x1="90.927" y1="591.546" x2="84.783" y2="587.999"/>
<line fill="none" stroke="#666666" stroke-width="3" stroke-linecap="round" stroke-linejoin="round" stroke-miterlimit="10" x1="76.001" y1="555.213" x2="79.546" y2="549.073"/>
<line fill="none" stroke="#666666" stroke-width="3" stroke-linecap="round" stroke-linejoin="round" stroke-miterlimit="10" x1="48.454" y1="602.927" x2="51.996" y2="596.791"/>
<line fill="none" stroke="#666666" stroke-width="3" stroke-linecap="round" stroke-linejoin="round" stroke-miterlimit="10" x1="84.789" y1="563.997" x2="90.927" y2="560.454"/>
<line fill="none" stroke="#666666" stroke-width="3" stroke-linecap="round" stroke-linejoin="round" stroke-miterlimit="10" x1="37.073" y1="591.546" x2="43.211" y2="588.002"/>
<line fill="none" stroke="#666666" stroke-width="3" stroke-linecap="round" stroke-linejoin="round" stroke-miterlimit="10" x1="88.005" y1="576" x2="95.093" y2="576"/>
<line fill="none" stroke="#666666" stroke-width="3" stroke-linecap="round" stroke-linejoin="round" stroke-miterlimit="10" x1="32.907" y1="576" x2="39.995" y2="576"/>
<line fill="none" stroke="#666666" stroke-width="3" stroke-linecap="round" stroke-linejoin="round" stroke-miterlimit="10" x1="64" y1="928.131" x2="64" y2="960"/>
<line fill="none" stroke="#666666" stroke-width="3" stroke-linecap="round" stroke-linejoin="round" stroke-miterlimit="10" x1="54.512" y1="937.317" x2="64" y2="942.752"/>
<line fill="none" stroke="#666666" stroke-width="3" stroke-linecap="round" stroke-linejoin="round" stroke-miterlimit="10" x1="73.488" y1="937.317" x2="64" y2="942.752"/>
<line fill="none" stroke="#666666" stroke-width="3" stroke-linecap="round" stroke-linejoin="round" stroke-miterlimit="10" x1="64" y1="991.869" x2="64" y2="960"/>
<line fill="none" stroke="#666666" stroke-width="3" stroke-linecap="round" stroke-linejoin="round" stroke-miterlimit="10" x1="54.512" y1="982.683" x2="64" y2="977.248"/>
<line fill="none" stroke="#666666" stroke-width="3" stroke-linecap="round" stroke-linejoin="round" stroke-miterlimit="10" x1="73.488" y1="982.683" x2="64" y2="977.248"/>
<line fill="none" stroke="#666666" stroke-width="3" stroke-linecap="round" stroke-linejoin="round" stroke-miterlimit="10" x1="36.185" y1="944.066" x2="64" y2="960"/>
<line fill="none" stroke="#666666" stroke-width="3" stroke-linecap="round" stroke-linejoin="round" stroke-miterlimit="10" x1="39.458" y1="956.811" x2="48.946" y2="951.376"/>
<line fill="none" stroke="#666666" stroke-width="3" stroke-linecap="round" stroke-linejoin="round" stroke-miterlimit="10" x1="48.946" y1="940.505" x2="48.946" y2="951.376"/>
<line fill="none" stroke="#666666" stroke-width="3" stroke-linecap="round" stroke-linejoin="round" stroke-miterlimit="10" x1="91.815" y1="975.934" x2="64" y2="960"/>
<line fill="none" stroke="#666666" stroke-width="3" stroke-linecap="round" stroke-linejoin="round" stroke-miterlimit="10" x1="79.054" y1="979.495" x2="79.054" y2="968.624"/>
<line fill="none" stroke="#666666" stroke-width="3" stroke-linecap="round" stroke-linejoin="round" stroke-miterlimit="10" x1="88.542" y1="963.189" x2="79.054" y2="968.624"/>
<line fill="none" stroke="#666666" stroke-width="3" stroke-linecap="round" stroke-linejoin="round" stroke-miterlimit="10" x1="91.815" y1="944.066" x2="64" y2="960"/>
<line fill="none" stroke="#666666" stroke-width="3" stroke-linecap="round" stroke-linejoin="round" stroke-miterlimit="10" x1="79.054" y1="940.505" x2="79.054" y2="951.376"/>
<line fill="none" stroke="#666666" stroke-width="3" stroke-linecap="round" stroke-linejoin="round" stroke-miterlimit="10" x1="88.542" y1="956.811" x2="79.054" y2="951.376"/>
<line fill="none" stroke="#666666" stroke-width="3" stroke-linecap="round" stroke-linejoin="round" stroke-miterlimit="10" x1="36.185" y1="975.934" x2="64" y2="960"/>
<line fill="none" stroke="#666666" stroke-width="3" stroke-linecap="round" stroke-linejoin="round" stroke-miterlimit="10" x1="39.458" y1="963.189" x2="48.946" y2="968.624"/>
<line fill="none" stroke="#666666" stroke-width="3" stroke-linecap="round" stroke-linejoin="round" stroke-miterlimit="10" x1="48.946" y1="979.495" x2="48.946" y2="968.624"/>
<path fill="none" stroke="#666666" stroke-width="3" stroke-linecap="round" stroke-linejoin="round" stroke-miterlimit="10" d="
	M85.868,695.412c-0.016,0-0.032,0.002-0.049,0.002c0.122-0.817,0.187-1.652,0.187-2.503c0-9.252-7.5-16.752-16.752-16.752
	c-7,0-12.994,4.295-15.499,10.391c-2.143-1.482-4.724-2.093-7.261-1.476c-3.981,0.969-6.671,4.669-7.03,9.036
	c-4.595,1.516-7.915,5.837-7.915,10.94c0,6.365,5.16,11.525,11.525,11.525h42.793c5.844,0,10.582-4.738,10.582-10.582
	S91.713,695.412,85.868,695.412z"/>
<line fill="none" stroke="#666666" stroke-width="3" stroke-linecap="round" stroke-linejoin="round" stroke-miterlimit="10" x1="47.224" y1="722.352" x2="42.653" y2="731.841"/>
<line fill="none" stroke="#666666" stroke-width="3" stroke-linecap="round" stroke-linejoin="round" stroke-miterlimit="10" x1="57.958" y1="722.352" x2="53.386" y2="731.841"/>
<line fill="none" stroke="#666666" stroke-width="3" stroke-linecap="round" stroke-linejoin="round" stroke-miterlimit="10" x1="68.692" y1="722.352" x2="64.12" y2="731.841"/>
<line fill="none" stroke="#666666" stroke-width="3" stroke-linecap="round" stroke-linejoin="round" stroke-miterlimit="10" x1="79.425" y1="722.352" x2="74.854" y2="731.841"/>
<circle fill="none" stroke="#666666" stroke-width="3" stroke-linecap="round" stroke-linejoin="round" stroke-miterlimit="10" cx="68.66" cy="834.402" r="17.583"/>
<line fill="none" stroke="#666666" stroke-width="3" stroke-linecap="round" stroke-linejoin="round" stroke-miterlimit="10" x1="68.66" y1="810.173" x2="68.66" y2="803.02"/>
<line fill="none" stroke="#666666" stroke-width="3" stroke-linecap="round" stroke-linejoin="round" stroke-miterlimit="10" x1="56.546" y1="813.421" x2="52.969" y2="807.224"/>
<line fill="none" stroke="#666666" stroke-width="3" stroke-linecap="round" stroke-linejoin="round" stroke-miterlimit="10" x1="47.683" y1="822.291" x2="41.482" y2="818.711"/>
<line fill="none" stroke="#666666" stroke-width="3" stroke-linecap="round" stroke-linejoin="round" stroke-miterlimit="10" x1="95.837" y1="850.093" x2="89.636" y2="846.513"/>
<line fill="none" stroke="#666666" stroke-width="3" stroke-linecap="round" stroke-linejoin="round" stroke-miterlimit="10" x1="80.773" y1="813.422" x2="84.351" y2="807.224"/>
<line fill="none" stroke="#666666" stroke-width="3" stroke-linecap="round" stroke-linejoin="round" stroke-miterlimit="10" x1="89.642" y1="822.288" x2="95.837" y2="818.711"/>
<line fill="none" stroke="#666666" stroke-width="3" stroke-linecap="round" stroke-linejoin="round" stroke-miterlimit="10" x1="41.482" y1="850.093" x2="47.678" y2="846.516"/>
<line fill="none" stroke="#666666" stroke-width="3" stroke-linecap="round" stroke-linejoin="round" stroke-miterlimit="10" x1="92.887" y1="834.402" x2="100.042" y2="834.402"/>
<line fill="none" stroke="#666666" stroke-width="3" stroke-linecap="round" stroke-linejoin="round" stroke-miterlimit="10" x1="37.277" y1="834.402" x2="44.431" y2="834.402"/>
<path fill="#FFFFFF" d="M84.694,860.98c2.242-2.429,3.624-5.662,3.624-9.221c0-4.937-2.642-9.387-6.791-11.783
	c-1.234-4.179-4.404-7.408-8.472-8.397c-0.863-0.21-1.75-0.316-2.637-0.316c-0.752,0-1.499,0.075-2.235,0.223
	c-3.299-4.408-8.508-7.09-14.204-7.09c-9.219,0-16.819,7.061-17.677,16.059c-4.871,1.837-8.345,6.546-8.345,12.052
	c0,3.246,1.217,6.207,3.207,8.475h53.53C84.694,860.982,84.694,860.98,84.694,860.98z"/>
<path fill="#FFFFFF" stroke="#666666" stroke-width="3" stroke-linecap="round" stroke-linejoin="round" stroke-miterlimit="10" d="
	M40.833,844.231c0.013,0,0.025,0.002,0.038,0.002c-0.097-0.646-0.148-1.308-0.148-1.981c0-7.322,5.936-13.257,13.257-13.257
	c5.539,0,10.283,3.399,12.265,8.223c1.696-1.173,3.739-1.656,5.746-1.168c3.151,0.766,5.279,3.695,5.563,7.151
	c3.636,1.2,6.264,4.619,6.264,8.658c0,5.037-4.083,9.121-9.121,9.121H40.833c-4.625,0-8.374-3.749-8.374-8.374
	S36.207,844.231,40.833,844.231z"/>
<circle fill="none" stroke="#666666" stroke-width="3" stroke-linecap="round" stroke-linejoin="round" stroke-miterlimit="10" cx="78.615" cy="1087.155" r="19.129"/>
<rect x="75.502" y="1062.821" fill="none" stroke="#666666" stroke-width="3" stroke-linecap="round" stroke-linejoin="round" stroke-miterlimit="10" width="6.226" height="5.205"/>
<path fill="#FFFFFF" d="M77.514,1099.572c0-9.072-5.15-17.204-13.107-21.15v-9.291h-4.501v-0.001H47.862v0.001h-4.499v9.291
	c-7.956,3.946-13.106,12.079-13.106,21.15c0,5.521,1.909,10.602,5.094,14.629h6.221c3.328,2.803,7.62,4.499,12.312,4.499
	s8.984-1.696,12.312-4.499h6.224C75.606,1110.174,77.514,1105.093,77.514,1099.572z"/>
<path fill="#FFFFFF" d="M64,1506.5c-19.023,0-34.5-15.477-34.5-34.5s15.477-34.5,34.5-34.5s34.5,15.477,34.5,34.5
	S83.023,1506.5,64,1506.5z"/>
<path fill="#FFFFFF" d="M64,1634.5c-19.023,0-34.5-15.477-34.5-34.5s15.477-34.5,34.5-34.5s34.5,15.477,34.5,34.5
	S83.023,1634.5,64,1634.5z"/>
<line fill="none" stroke="#666666" stroke-width="3" stroke-linecap="round" stroke-linejoin="round" stroke-miterlimit="10" x1="72.272" y1="1062.821" x2="84.959" y2="1062.821"/>
<line fill="none" stroke="#666666" stroke-width="3" stroke-linecap="round" stroke-linejoin="round" stroke-miterlimit="10" x1="78.615" y1="1087.155" x2="78.615" y2="1072.912"/>
<line fill="none" stroke="#666666" stroke-width="3" stroke-linecap="round" stroke-linejoin="round" stroke-miterlimit="10" x1="92.142" y1="1073.629" x2="95.94" y2="1069.83"/>
<path fill="none" stroke="#666666" stroke-width="3" stroke-linecap="round" stroke-linejoin="round" stroke-miterlimit="10" d="
	M47.862,1069.13v12.294c-7.611,2.526-13.107,9.689-13.107,18.147c0,10.565,8.564,19.129,19.129,19.129s19.129-8.565,19.129-19.129
	c0-8.458-5.496-15.622-13.107-18.147v-12.294"/>
<rect x="44.204" y="1064.059" fill="none" stroke="#666666" stroke-width="3" stroke-linecap="round" stroke-linejoin="round" stroke-miterlimit="10" width="19.36" height="5.07"/>
<polyline fill="none" stroke="#666666" stroke-width="3" stroke-linecap="round" stroke-linejoin="round" stroke-miterlimit="10" points="
	56.834,1064.06 58.025,1057.299 53.905,1057.299 53.865,1057.299 49.745,1057.299 50.935,1064.06 "/>
<path fill="none" stroke="#666666" stroke-width="3" stroke-linecap="round" stroke-linejoin="round" stroke-miterlimit="10" d="
	M62.757,1097.821c-3.604-7.078-8.872-0.813-8.872-0.813s-5.267-6.266-8.872,0.813c-2.316,4.549,4.912,11.837,8.872,13.066
	C57.845,1109.658,65.073,1102.37,62.757,1097.821z"/>
<line fill="none" stroke="#666666" stroke-width="3" stroke-linecap="round" stroke-linejoin="round" stroke-miterlimit="10" x1="37.79" y1="1089.245" x2="70.038" y2="1089.245"/>
<rect y="1536" fill="none" width="128" height="128"/>
<rect y="1664" fill="none" width="128" height="128"/>
<path fill="none" stroke="#666666" stroke-width="3" stroke-linecap="round" stroke-miterlimit="10" d="M52.455,1464.428
	c0-15.468,23.089-14.953,23.089-1.465c0,10.403-12.303,7.137-12.303,19.837"/>
<circle fill="#666666" cx="63.413" cy="1490.541" r="2.395"/>
<polyline fill="none" stroke="#666666" stroke-width="3" stroke-linecap="round" stroke-linejoin="round" stroke-miterlimit="10" points="
	32.36,1224.422 14.314,1217.632 38.817,1206.523 27.712,1182.021 52.89,1191.494 62.368,1166.314 73.473,1190.817 "/>
<polyline fill="none" stroke="#666666" stroke-width="3" stroke-linecap="round" stroke-linejoin="round" stroke-miterlimit="10" points="
	54.526,1241.182 65.632,1265.686 75.106,1240.505 100.288,1249.979 89.181,1225.474 113.686,1214.368 96.071,1207.74 "/>
<path fill="#FFFFFF" d="M90.051,1198.325l-0.835-3.438c-0.519-2.135-2.418-3.626-4.62-3.626c-2.201,0-4.099,1.489-4.614,3.621
	l-0.832,3.442H60.131l0.552-4.994c1.348-12.192,11.627-21.386,23.912-21.386c12.28,0,22.562,9.192,23.918,21.383l0.556,4.997
	L90.051,1198.325L90.051,1198.325z"/>
<path fill="#FFFFFF" d="M84.596,1220.077c-12.278,0-22.558-9.192-23.912-21.382l-0.555-4.997H79.15l0.832,3.442
	c0.516,2.132,2.413,3.621,4.614,3.621c2.198,0,4.1-1.493,4.622-3.632l0.839-3.432h19.013l-0.556,4.997
	C107.158,1210.884,96.876,1220.077,84.596,1220.077z"/>
<path fill="#FFFFFF" d="M47.909,1236.303l-0.832-3.443c-0.515-2.132-2.412-3.62-4.614-3.62c-2.198,0-4.093,1.488-4.608,3.62
	l-0.832,3.443H17.997l0.555-4.997c1.354-12.19,11.634-21.383,23.912-21.383c12.281,0,22.563,9.192,23.917,21.383l0.555,4.997H47.909
	z"/>
<path fill="#FFFFFF" d="M42.464,1258.055c-12.278,0-22.558-9.192-23.912-21.382l-0.555-4.997h19.026l0.832,3.443
	c0.515,2.131,2.41,3.619,4.608,3.619c2.202,0,4.099-1.488,4.614-3.619l0.832-3.443h19.026l-0.555,4.997
	C65.027,1248.863,54.745,1258.055,42.464,1258.055z"/>
<path fill="#666666" stroke="#666666" stroke-width="2" stroke-linecap="round" stroke-linejoin="round" stroke-miterlimit="10" d="
	M104.041,1193.825H93.589c-0.985-4.052-4.638-7.063-8.994-7.063s-8.009,3.011-8.988,7.063H65.156
	c1.081-9.776,9.371-17.38,19.439-17.38S102.954,1184.049,104.041,1193.825z"/>
<path fill="none" stroke="#666666" stroke-width="2" stroke-linecap="round" stroke-linejoin="round" stroke-miterlimit="10" d="
	M93.589,1198.198h10.451c-1.086,9.776-9.382,17.38-19.445,17.38s-18.353-7.604-19.439-17.38h10.451
	c0.979,4.052,4.632,7.063,8.988,7.063S92.599,1202.25,93.589,1198.198z"/>
<path fill="none" stroke="#666666" stroke-width="2" stroke-linecap="round" stroke-linejoin="round" stroke-miterlimit="10" d="
	M84.596,1190.38c3.112,0,5.634,2.521,5.634,5.628c0,3.112-2.521,5.634-5.634,5.634s-5.634-2.521-5.634-5.634
	C78.962,1192.902,81.483,1190.38,84.596,1190.38z"/>
<path fill="#666666" stroke="#666666" stroke-width="2" stroke-linecap="round" stroke-linejoin="round" stroke-miterlimit="10" d="
	M61.909,1231.803H51.452c-0.979-4.052-4.632-7.063-8.988-7.063s-8.003,3.011-8.982,7.063H23.024
	c1.086-9.776,9.376-17.38,19.439-17.38S60.823,1222.027,61.909,1231.803z"/>
<path fill="none" stroke="#666666" stroke-width="2" stroke-linecap="round" stroke-linejoin="round" stroke-miterlimit="10" d="
	M51.452,1236.176h10.457c-1.086,9.776-9.376,17.38-19.445,17.38s-18.353-7.604-19.439-17.38h10.457
	c0.979,4.052,4.626,7.063,8.982,7.063S50.472,1240.228,51.452,1236.176z"/>
<g>
	<path fill="#FFFFFF" d="M55.39,1326.466c-0.603,0-1.21-0.074-1.807-0.219c-2.244-0.547-3.925-1.929-5.454-3.298
		c-0.282-0.253-0.841-0.752-1.265-1.054c-0.435,0.308-1.047,0.831-1.321,1.064c0,0-0.463,0.395-0.652,0.552
		c-0.994,0.825-2.357,1.958-4.144,2.547c-0.799,0.263-1.624,0.396-2.453,0.396c-1.393,0-2.786-0.372-4.14-1.105
		c-1.298-0.703-2.316-1.611-3.214-2.413c-0.386-0.344-0.875-0.78-1.233-1.04c-0.246,0.159-0.659,0.466-1.315,1.053
		c-0.824,0.739-1.891,1.147-3,1.147c-1.277,0-2.499-0.545-3.352-1.496c-1.656-1.851-1.499-4.701,0.349-6.355
		c1.36-1.218,3.89-3.482,7.376-3.482c1.019,0,2.028,0.2,3,0.596c1.757,0.714,3.034,1.853,4.161,2.857
		c0.472,0.421,0.95,0.848,1.312,1.095c0.272-0.2,0.629-0.496,0.895-0.717l0.57-0.482c1.578-1.347,3.966-3.385,7.167-3.385
		c0.603,0,1.211,0.074,1.807,0.22c2.242,0.547,3.923,1.928,5.453,3.296c0.281,0.252,0.839,0.752,1.263,1.054
		c0.438-0.308,1.053-0.832,1.327-1.066c0.217-0.186,0.434-0.369,0.649-0.548c0.992-0.825,2.356-1.959,4.143-2.548
		c0.797-0.263,1.623-0.396,2.453-0.396c1.393,0,2.786,0.372,4.139,1.105c1.301,0.704,2.318,1.612,3.215,2.414
		c0.389,0.346,0.877,0.78,1.233,1.039c0.246-0.159,0.659-0.466,1.316-1.053c1.357-1.216,3.887-3.48,7.373-3.48
		c1.019,0,2.028,0.2,3.001,0.596c1.758,0.714,3.035,1.854,4.163,2.859c0.469,0.418,0.947,0.846,1.311,1.093
		c0.273-0.2,0.635-0.5,0.903-0.724c0.185-0.153,0.369-0.312,0.555-0.47c1.592-1.357,3.977-3.391,7.173-3.391
		c0.604,0,1.213,0.073,1.81,0.22c2.242,0.548,3.923,1.929,5.451,3.296c1.849,1.656,2.007,4.506,0.354,6.354
		c-0.854,0.955-2.076,1.501-3.354,1.501c-1.107,0-2.172-0.406-2.998-1.144c-0.282-0.253-0.842-0.754-1.267-1.057
		c-0.437,0.308-1.049,0.83-1.323,1.064c-0.217,0.186-0.435,0.37-0.651,0.551c-0.994,0.825-2.357,1.959-4.146,2.547
		c-0.797,0.263-1.622,0.396-2.451,0.396c-1.394,0-2.786-0.372-4.14-1.105c-1.301-0.704-2.318-1.612-3.215-2.414
		c-0.389-0.346-0.875-0.779-1.232-1.038c-0.246,0.159-0.659,0.465-1.314,1.052c-1.359,1.217-3.891,3.48-7.374,3.481
		c-1.02,0-2.03-0.201-3.004-0.597c-1.757-0.714-3.034-1.854-4.162-2.859c-0.469-0.419-0.948-0.847-1.312-1.094
		c-0.269,0.199-0.632,0.501-0.902,0.725l-0.555,0.471C60.98,1324.427,58.59,1326.466,55.39,1326.466z"/>
	<path fill="#FFFFFF" d="M55.389,1342.735c-0.602,0-1.21-0.074-1.807-0.219c-2.245-0.548-3.925-1.931-5.454-3.299
		c-0.281-0.252-0.841-0.753-1.266-1.054c-0.425,0.301-1.022,0.811-1.322,1.066c-0.214,0.184-0.431,0.368-0.647,0.548
		c-1.004,0.833-2.369,1.965-4.148,2.55c-0.796,0.263-1.621,0.396-2.45,0.396c-1.392,0-2.785-0.372-4.139-1.104
		c-1.296-0.701-2.313-1.608-3.21-2.408c-0.39-0.349-0.881-0.786-1.24-1.046c-0.246,0.159-0.659,0.466-1.315,1.053
		c-0.826,0.739-1.891,1.146-3,1.146c-1.281,0-2.504-0.547-3.356-1.502c-0.8-0.893-1.205-2.047-1.138-3.248
		c0.067-1.2,0.597-2.302,1.493-3.104c1.36-1.217,3.89-3.479,7.375-3.479c1.018,0,2.027,0.2,2.999,0.595
		c1.759,0.716,3.037,1.854,4.164,2.859c0.469,0.419,0.947,0.847,1.311,1.094c0.27-0.199,0.632-0.499,0.9-0.723l0.56-0.473
		c1.58-1.35,3.967-3.389,7.172-3.389c0.603,0,1.211,0.074,1.807,0.219c2.245,0.548,3.924,1.929,5.453,3.297
		c0.281,0.251,0.841,0.753,1.266,1.055c0.434-0.308,1.047-0.83,1.321-1.064c0.215-0.185,0.434-0.37,0.652-0.552
		c0.992-0.824,2.353-1.956,4.14-2.546c0.801-0.264,1.627-0.397,2.457-0.397c1.392,0,2.784,0.371,4.139,1.104
		c1.301,0.704,2.318,1.612,3.217,2.414c0.387,0.345,0.875,0.78,1.232,1.039c0.246-0.159,0.66-0.466,1.315-1.053
		c1.361-1.217,3.893-3.479,7.376-3.479c1.019,0,2.027,0.2,2.999,0.595c1.759,0.716,3.036,1.854,4.162,2.859
		c0.471,0.421,0.949,0.847,1.311,1.094c0.273-0.2,0.635-0.501,0.904-0.724l0.559-0.474c1.592-1.359,3.97-3.389,7.162-3.389
		c0.607,0,1.221,0.074,1.822,0.223c2.236,0.545,3.916,1.927,5.445,3.295c1.849,1.655,2.007,4.505,0.354,6.353
		c-0.856,0.955-2.078,1.501-3.355,1.501c-1.107,0-2.173-0.407-2.999-1.146c-0.281-0.252-0.842-0.754-1.267-1.056
		c-0.435,0.308-1.048,0.832-1.321,1.065c0,0-0.461,0.394-0.651,0.552c-1.054,0.874-2.364,1.96-4.145,2.547
		c-0.798,0.263-1.623,0.396-2.452,0.396c-1.392,0-2.784-0.372-4.138-1.104c-1.302-0.704-2.32-1.613-3.218-2.416
		c-0.384-0.342-0.872-0.777-1.231-1.037c-0.246,0.159-0.66,0.466-1.316,1.053c-1.367,1.222-3.895,3.479-7.371,3.479
		c-1.02,0-2.029-0.2-3.003-0.596c-1.766-0.719-3.097-1.907-4.167-2.862c-0.465-0.416-0.944-0.843-1.307-1.09
		c-0.272,0.2-0.631,0.497-0.898,0.719l-0.564,0.478C60.98,1340.696,58.592,1342.735,55.389,1342.735z"/>
	<path fill="#FFFFFF" d="M55.39,1359.004c-0.602,0-1.21-0.073-1.807-0.219c-2.245-0.547-3.926-1.93-5.455-3.298
		c-0.282-0.253-0.841-0.752-1.265-1.054c-0.434,0.308-1.046,0.83-1.32,1.063c0,0-0.464,0.396-0.653,0.553
		c-0.995,0.826-2.357,1.958-4.141,2.547c-0.801,0.263-1.626,0.396-2.455,0.396c-1.392,0-2.785-0.372-4.139-1.104
		c-1.3-0.704-2.318-1.612-3.216-2.414c-0.387-0.345-0.875-0.779-1.232-1.039c-0.246,0.159-0.66,0.466-1.316,1.053
		c-0.826,0.739-1.891,1.146-3,1.146c-1.281,0-2.504-0.547-3.356-1.502c-0.8-0.893-1.205-2.047-1.138-3.248
		c0.067-1.2,0.597-2.302,1.493-3.104c1.359-1.217,3.89-3.481,7.373-3.481c1.019,0,2.03,0.201,3.003,0.597
		c1.761,0.718,3.038,1.856,4.165,2.862c0.465,0.415,0.944,0.843,1.308,1.09c0.271-0.199,0.63-0.497,0.897-0.719l0.568-0.48
		c1.578-1.347,3.965-3.385,7.168-3.385c0.603,0,1.209,0.074,1.805,0.219c2.243,0.548,3.924,1.929,5.454,3.297
		c0.281,0.252,0.84,0.752,1.264,1.054c0.437-0.307,1.051-0.831,1.326-1.064c0.215-0.185,0.433-0.37,0.65-0.55
		c0.995-0.826,2.36-1.96,4.142-2.548c0.798-0.263,1.623-0.396,2.452-0.396c1.392,0,2.785,0.372,4.139,1.104
		c1.302,0.704,2.32,1.613,3.218,2.416c0.385,0.343,0.874,0.779,1.233,1.038c0.246-0.159,0.659-0.466,1.314-1.053
		c1.361-1.217,3.893-3.479,7.375-3.479c1.018,0,2.026,0.199,2.999,0.594c1.766,0.72,3.097,1.908,4.167,2.863
		c0.466,0.416,0.944,0.844,1.309,1.091c0.271-0.2,0.633-0.501,0.902-0.725c0.185-0.153,0.369-0.312,0.555-0.47
		c1.588-1.354,3.976-3.39,7.175-3.39c0.603,0,1.21,0.073,1.805,0.218c2.245,0.549,3.926,1.93,5.454,3.297
		c1.849,1.656,2.007,4.506,0.354,6.354c-0.854,0.955-2.077,1.501-3.355,1.501c-1.107,0-2.172-0.406-2.999-1.146
		c-0.281-0.252-0.84-0.753-1.265-1.055c-0.437,0.308-1.049,0.83-1.323,1.064c-0.217,0.186-0.435,0.37-0.651,0.551
		c-0.993,0.824-2.355,1.957-4.141,2.546c-0.802,0.264-1.627,0.396-2.455,0.396c-1.393,0-2.785-0.371-4.14-1.104
		c-1.301-0.704-2.318-1.612-3.217-2.414c-0.387-0.345-0.874-0.779-1.232-1.039c-0.245,0.159-0.659,0.466-1.314,1.053
		c-1.366,1.222-3.895,3.481-7.371,3.481c-1.02,0-2.031-0.201-3.006-0.597c-1.758-0.716-3.034-1.854-4.161-2.859
		c-0.471-0.421-0.949-0.848-1.311-1.094c-0.272,0.2-0.633,0.5-0.901,0.723l-0.528,0.446
		C60.98,1356.965,58.591,1359.004,55.39,1359.004z"/>
	<path fill="#FFFFFF" d="M55.389,1375.273c-0.602,0-1.21-0.074-1.807-0.219c-2.245-0.548-3.925-1.931-5.454-3.299
		c-0.281-0.252-0.841-0.752-1.265-1.053c-0.435,0.307-1.048,0.831-1.323,1.065l-0.645,0.546c-1.001,0.832-2.365,1.964-4.149,2.552
		c-0.799,0.263-1.624,0.396-2.453,0.396c-1.393,0-2.786-0.372-4.14-1.105c-1.298-0.703-2.316-1.611-3.214-2.413
		c-0.386-0.344-0.875-0.78-1.233-1.04c-0.246,0.159-0.659,0.466-1.316,1.054c-0.824,0.738-1.89,1.146-2.999,1.146
		c-1.28,0-2.504-0.547-3.356-1.502c-0.8-0.893-1.205-2.047-1.138-3.248c0.067-1.2,0.597-2.302,1.493-3.104
		c1.359-1.216,3.889-3.479,7.375-3.479c1.018,0,2.027,0.199,3,0.594c1.758,0.715,3.035,1.854,4.162,2.858
		c0.472,0.421,0.95,0.848,1.312,1.095c0.272-0.2,0.629-0.496,0.895-0.717c0.191-0.158,0.376-0.316,0.562-0.476
		c1.584-1.353,3.973-3.392,7.174-3.392c0.604,0,1.213,0.073,1.811,0.22c2.243,0.546,3.923,1.928,5.451,3.296
		c0.281,0.251,0.841,0.753,1.266,1.055c0.435-0.308,1.046-0.831,1.32-1.064c0.242-0.206,0.447-0.381,0.653-0.552
		c0.995-0.826,2.358-1.959,4.144-2.547c0.797-0.263,1.623-0.396,2.453-0.396c1.393,0,2.786,0.372,4.139,1.105
		c1.301,0.704,2.318,1.612,3.215,2.414c0.389,0.346,0.877,0.78,1.234,1.039c0.245-0.159,0.658-0.466,1.314-1.053
		c1.359-1.217,3.89-3.479,7.374-3.479c1.019,0,2.027,0.199,3,0.594c1.759,0.715,3.036,1.854,4.164,2.86
		c0.469,0.418,0.947,0.846,1.311,1.093c0.273-0.2,0.635-0.5,0.903-0.724l0.553-0.468c1.582-1.352,3.971-3.393,7.175-3.393
		c0.604,0,1.213,0.073,1.81,0.22c2.241,0.546,3.922,1.928,5.451,3.296c1.849,1.655,2.007,4.505,0.354,6.353
		c-0.854,0.955-2.076,1.501-3.354,1.501c-1.107,0-2.172-0.406-2.998-1.144c-0.282-0.253-0.842-0.755-1.267-1.057
		c-0.438,0.308-1.051,0.832-1.325,1.066c-0.217,0.185-0.431,0.367-0.645,0.545c-0.998,0.829-2.362,1.963-4.15,2.552
		c-0.797,0.263-1.622,0.396-2.451,0.396c-1.394,0-2.786-0.372-4.14-1.105c-1.301-0.704-2.318-1.612-3.215-2.414
		c-0.389-0.346-0.875-0.779-1.232-1.038c-0.246,0.159-0.66,0.465-1.316,1.053c-1.357,1.215-3.887,3.479-7.372,3.48
		c-1.02,0-2.03-0.201-3.004-0.597c-1.757-0.714-3.034-1.854-4.162-2.859c-0.469-0.418-0.948-0.846-1.312-1.094
		c-0.271,0.2-0.633,0.501-0.903,0.725l-0.558,0.473C60.98,1373.234,58.592,1375.273,55.389,1375.273z"/>
</g>
<path fill="none" stroke="#666666" stroke-width="2" stroke-linecap="round" stroke-linejoin="round" stroke-miterlimit="10" d="
	M47.653,1231.803c-0.85-2.026-2.853-3.444-5.189-3.444s-4.339,1.418-5.189,3.444c-0.287,0.67-0.445,1.413-0.445,2.189
	s0.158,1.514,0.445,2.184c0.85,2.026,2.853,3.444,5.189,3.444s4.339-1.418,5.189-3.444c0.287-0.67,0.445-1.407,0.445-2.184
	S47.94,1232.473,47.653,1231.803z"/>
<circle fill="none" stroke="#666666" stroke-width="3" stroke-miterlimit="10" cx="64" cy="1472" r="30"/>
<g>
	
		<path id="path2487_1_" fill="none" stroke="#666666" stroke-width="3" stroke-linecap="round" stroke-linejoin="round" stroke-miterlimit="10" d="
		M25.391,1319.596c1.749-1.566,3.588-2.921,5.68-2.069c1.905,0.775,3.389,2.871,5.227,3.866c0.99,0.536,2.004,0.734,3.042,0.392
		c0.97-0.319,1.824-1.027,2.678-1.737c1.729-1.436,3.493-3.243,5.594-2.731c1.275,0.311,2.433,1.307,3.519,2.279
		c1.086,0.972,2.244,1.968,3.519,2.279c2.101,0.513,3.864-1.295,5.594-2.731c0.854-0.709,1.709-1.417,2.678-1.737
		c1.037-0.342,2.052-0.144,3.042,0.392c1.838,0.995,3.321,3.091,5.227,3.866c2.093,0.851,3.931-0.504,5.68-2.069
		c1.749-1.566,3.588-2.921,5.68-2.069c1.905,0.775,3.389,2.871,5.227,3.866c0.99,0.536,2.004,0.734,3.042,0.392
		c0.97-0.319,1.824-1.027,2.678-1.737c1.729-1.436,3.493-3.243,5.594-2.731c1.275,0.311,2.433,1.307,3.519,2.279"/>
	
		<path id="path2487_2_" fill="none" stroke="#666666" stroke-width="3" stroke-linecap="round" stroke-linejoin="round" stroke-miterlimit="10" d="
		M25.391,1335.865c1.749-1.566,3.588-2.921,5.68-2.069c1.905,0.775,3.389,2.871,5.227,3.866c0.99,0.536,2.004,0.734,3.042,0.392
		c0.97-0.319,1.824-1.027,2.678-1.737c1.729-1.436,3.493-3.243,5.594-2.731c1.275,0.311,2.433,1.307,3.519,2.279
		c1.086,0.972,2.244,1.968,3.519,2.279c2.101,0.513,3.864-1.295,5.594-2.731c0.854-0.709,1.709-1.417,2.678-1.737
		c1.037-0.342,2.052-0.144,3.042,0.392c1.838,0.995,3.321,3.091,5.227,3.866c2.093,0.851,3.931-0.504,5.68-2.069
		c1.749-1.566,3.588-2.921,5.68-2.069c1.905,0.775,3.389,2.871,5.227,3.866c0.99,0.536,2.004,0.734,3.042,0.392
		c0.97-0.319,1.824-1.027,2.678-1.737c1.729-1.436,3.493-3.243,5.594-2.731c1.275,0.311,2.433,1.307,3.519,2.279"/>
	
		<path id="path2487_3_" fill="none" stroke="#666666" stroke-width="3" stroke-linecap="round" stroke-linejoin="round" stroke-miterlimit="10" d="
		M25.391,1352.135c1.749-1.566,3.588-2.92,5.68-2.069c1.905,0.775,3.389,2.871,5.227,3.866c0.99,0.536,2.004,0.734,3.042,0.392
		c0.97-0.32,1.824-1.027,2.678-1.737c1.729-1.436,3.493-3.243,5.594-2.731c1.275,0.311,2.433,1.307,3.519,2.279
		c1.086,0.972,2.244,1.968,3.519,2.279c2.101,0.513,3.864-1.295,5.594-2.731c0.854-0.71,1.709-1.417,2.678-1.737
		c1.037-0.342,2.052-0.144,3.042,0.392c1.838,0.995,3.321,3.09,5.227,3.866c2.093,0.851,3.931-0.504,5.68-2.069
		c1.749-1.566,3.588-2.92,5.68-2.069c1.905,0.775,3.389,2.871,5.227,3.866c0.99,0.536,2.004,0.734,3.042,0.392
		c0.97-0.32,1.824-1.027,2.678-1.737c1.729-1.436,3.493-3.243,5.594-2.731c1.275,0.311,2.433,1.307,3.519,2.279"/>
	
		<path id="path2487_4_" fill="none" stroke="#666666" stroke-width="3" stroke-linecap="round" stroke-linejoin="round" stroke-miterlimit="10" d="
		M25.391,1368.404c1.749-1.566,3.588-2.92,5.68-2.069c1.905,0.775,3.389,2.871,5.227,3.866c0.99,0.536,2.004,0.734,3.042,0.392
		c0.97-0.32,1.824-1.027,2.678-1.737c1.729-1.436,3.493-3.243,5.594-2.731c1.275,0.311,2.433,1.307,3.519,2.279
		c1.086,0.972,2.244,1.968,3.519,2.279c2.101,0.513,3.864-1.295,5.594-2.731c0.854-0.71,1.709-1.417,2.678-1.737
		c1.037-0.342,2.052-0.144,3.042,0.392c1.838,0.995,3.321,3.09,5.227,3.866c2.093,0.851,3.931-0.504,5.68-2.069
		c1.749-1.566,3.588-2.92,5.68-2.069c1.905,0.775,3.389,2.871,5.227,3.866c0.99,0.536,2.004,0.734,3.042,0.392
		c0.97-0.32,1.824-1.027,2.678-1.737c1.729-1.436,3.493-3.243,5.594-2.731c1.275,0.311,2.433,1.307,3.519,2.279"/>
</g>
<circle fill="#666666" cx="64" cy="1618.541" r="2.395"/>
<circle fill="none" stroke="#666666" stroke-width="3" stroke-miterlimit="10" cx="64" cy="1600" r="30"/>
<line fill="none" stroke="#666666" stroke-width="3" stroke-linecap="round" stroke-miterlimit="10" x1="64" y1="1608.492" x2="64" y2="1582.429"/>
<path fill="#FFFFFF" d="M70.363,1728l16.818-16.818c1.755-1.754,1.755-4.609,0-6.363c-0.85-0.851-1.979-1.318-3.182-1.318
	s-2.332,0.468-3.182,1.318L64,1721.637l-16.818-16.818c-0.85-0.851-1.98-1.318-3.182-1.318s-2.332,0.468-3.182,1.318
	c-1.755,1.754-1.755,4.609,0,6.363L57.637,1728l-16.818,16.818c-1.755,1.754-1.755,4.609,0,6.363c0.85,0.851,1.98,1.318,3.182,1.318
	s2.332-0.468,3.182-1.318L64,1734.363l16.818,16.818c0.85,0.851,1.979,1.318,3.182,1.318s2.332-0.468,3.182-1.318
	c1.755-1.754,1.755-4.609,0-6.363L70.363,1728z"/>
<g>
	
		<line fill="none" stroke="#666666" stroke-width="3" stroke-linecap="round" stroke-miterlimit="10" x1="44" y1="1708" x2="84" y2="1748"/>
	
		<line fill="none" stroke="#666666" stroke-width="3" stroke-linecap="round" stroke-miterlimit="10" x1="44" y1="1748" x2="84" y2="1708"/>
</g>
<g>
	<path fill="#FFFFFF" d="M162.34,488.648h60.662c14.888,0,27-12.113,27-27.003c-0.002-10.425-6.156-19.859-15.27-24.305
		c-2.763-16.981-17.533-29.986-35.283-29.986c-10.62,0-20.396,4.554-27.112,12.416c-0.777-0.075-1.559-0.112-2.342-0.112
		c-1.908,0-3.809,0.227-5.646,0.674c-8.184,1.99-14.65,8.083-17.551,16.289c-7.879,5.18-12.797,14.109-12.797,23.689
		C134.002,475.936,146.714,488.648,162.34,488.648z"/>
	<path fill="#FFFFFF" d="M144.5,334.902h9.91c-0.073,0.536-0.125,1.078-0.125,1.633c0,6.617,5.383,12,12,12h30.355
		c1.653,9.672,10.099,17.058,20.235,17.058c11.32,0,20.529-9.209,20.529-20.529c0-4.04-1.189-7.8-3.212-10.979
		c9.958-2.7,17.307-11.812,17.307-22.613c0-12.919-10.511-23.43-23.43-23.43c-3.93,0-7.635,0.975-10.892,2.692
		c-3.016-9.456-11.883-16.325-22.326-16.325c-12.729,0-23.119,10.203-23.423,22.86h-19.675c-6.617,0-12,5.383-12,12
		c0,0.86,0.095,1.698,0.268,2.508c-4.404,1.779-7.523,6.091-7.523,11.125C132.5,329.519,137.883,334.902,144.5,334.902z"/>
	<path fill="#FFFFFF" d="M250.639,576c0-6.617-5.383-12-12-12h-1.853l1.605-0.926c5.729-3.307,7.7-10.66,4.394-16.391
		c-2.136-3.702-6.12-6.002-10.396-6.002c-2.099,0-4.171,0.555-5.996,1.607l-1.608,0.928l0.928-1.607
		c3.308-5.73,1.338-13.084-4.39-16.391c-1.823-1.053-3.897-1.61-5.999-1.61c-4.273,0-8.256,2.298-10.396,6.001L204,531.215v-1.855
		c0-6.617-5.383-12-12-12s-12,5.383-12,12v1.855l-0.926-1.604c-2.137-3.702-6.12-6.002-10.397-6.002
		c-2.099,0-4.17,0.555-5.996,1.608c-5.73,3.308-7.7,10.662-4.393,16.393l0.928,1.607l-1.606-0.927
		c-1.822-1.053-3.896-1.609-5.997-1.609c-4.278,0-8.263,2.301-10.396,6.001c-3.308,5.73-1.338,13.084,4.394,16.393l1.604,0.926
		h-1.853c-6.617,0-12,5.383-12,12s5.383,12,12,12h1.853l-1.605,0.927c-5.73,3.308-7.7,10.662-4.392,16.394
		c2.138,3.7,6.121,5.999,10.396,5.999c2.101,0,4.175-0.556,5.996-1.608l1.608-0.928l-0.929,1.609
		c-3.308,5.73-1.337,13.083,4.396,16.394c1.822,1.051,3.895,1.606,5.993,1.606c4.277,0,8.262-2.3,10.396-6.001l0.927-1.605v1.855
		c0,6.617,5.383,12,12,12s12-5.383,12-12v-1.855l0.926,1.604c2.136,3.703,6.12,6.003,10.397,6.003c2.099,0,4.171-0.555,5.996-1.608
		c2.776-1.603,4.762-4.19,5.591-7.287c0.829-3.096,0.403-6.33-1.198-9.105l-0.928-1.607l1.605,0.927
		c1.822,1.052,3.896,1.608,5.997,1.608c4.278,0,8.263-2.301,10.396-6.001c3.308-5.73,1.338-13.084-4.394-16.393L236.786,588h1.853
		C245.256,588,250.639,582.617,250.639,576z"/>
	<path fill="#FFFFFF" d="M138.961,980.604c-0.84,3.094-0.425,6.33,1.169,9.111c2.134,3.722,6.124,6.035,10.416,6.035
		c2.087,0,4.149-0.549,5.961-1.588l1.785-1.022c1.532,4.216,5.352,7.339,9.958,7.843c2.247,3.005,5.808,4.827,9.612,4.827
		c0.72,0,1.433-0.089,2.138-0.217v1.908c0,6.617,5.383,12,12,12s12-5.383,12-12v-1.909c0.705,0.128,1.418,0.217,2.138,0.217
		c3.806,0,7.367-1.823,9.613-4.827c4.607-0.504,8.426-3.627,9.958-7.843l1.783,1.021c1.813,1.04,3.876,1.589,5.963,1.589
		c4.294,0,8.286-2.314,10.416-6.034c1.594-2.782,2.009-6.018,1.169-9.111c-0.841-3.093-2.835-5.674-5.616-7.268l-1.614-0.925
		c1.083-1.304,1.894-2.829,2.352-4.514c0.72-2.654,0.511-5.41-0.568-7.897c1.079-2.487,1.289-5.244,0.568-7.898
		c-0.458-1.685-1.268-3.21-2.352-4.514l1.614-0.925c2.781-1.593,4.775-4.174,5.616-7.268c0.84-3.094,0.425-6.33-1.169-9.111
		c-2.134-3.723-6.124-6.035-10.415-6.035c-2.086,0-4.148,0.55-5.962,1.589l-1.785,1.022c-1.532-4.216-5.352-7.339-9.959-7.843
		c-2.247-3.005-5.807-4.828-9.611-4.828c-0.721,0-1.433,0.089-2.139,0.217V912.5c0-6.617-5.383-12-12-12s-12,5.383-12,12v1.908
		c-0.705-0.129-1.418-0.217-2.139-0.217c-3.805,0-7.366,1.824-9.612,4.828c-4.607,0.504-8.426,3.627-9.958,7.843l-1.781-1.02
		c-1.815-1.042-3.879-1.591-5.967-1.591c-4.295,0-8.287,2.315-10.414,6.035c-1.594,2.782-2.009,6.018-1.169,9.111
		c0.841,3.093,2.835,5.674,5.616,7.268l1.614,0.925c-1.083,1.304-1.894,2.829-2.352,4.514c-0.721,2.654-0.511,5.411,0.568,7.898
		c-1.079,2.487-1.288,5.244-0.568,7.898c0.458,1.685,1.268,3.21,2.352,4.514l-1.614,0.925
		C141.796,974.93,139.802,977.511,138.961,980.604z"/>
	<path fill="#FFFFFF" d="M153.014,733.169l-3.071,6.375c-1.392,2.888-1.575,6.145-0.517,9.17c1.058,3.026,3.231,5.459,6.119,6.85
		c1.616,0.778,3.416,1.19,5.205,1.19c2.923,0,5.706-1.089,7.857-2.948c0.787,0.684,1.666,1.284,2.649,1.758
		c1.616,0.778,3.416,1.19,5.205,1.19c2.923,0,5.706-1.089,7.857-2.948c0.787,0.684,1.666,1.284,2.65,1.758
		c1.616,0.778,3.416,1.19,5.205,1.19c2.921,0,5.703-1.088,7.853-2.944c0.796,0.689,1.68,1.285,2.654,1.754
		c1.616,0.778,3.416,1.19,5.205,1.19c4.58,0,8.825-2.666,10.813-6.793l6.691-13.89c0.274-0.569,0.488-1.155,0.668-1.748
		c14.205-1.052,25.443-12.937,25.443-27.406c0-10.704-6.343-20.352-15.729-24.836c-2.738-17.447-17.874-30.834-36.078-30.834
		c-10.929,0-20.969,4.71-27.832,12.839c-0.857-0.09-1.72-0.135-2.585-0.135c-1.938,0-3.866,0.23-5.736,0.685
		c-8.364,2.036-14.959,8.281-17.89,16.692c-8.094,5.265-13.149,14.396-13.149,24.209C132.5,718.551,141.157,729.577,153.014,733.169
		z"/>
	<path fill="#FFFFFF" d="M243.44,823.405c5.353-3.435,7.13-10.521,3.916-16.088c-2.137-3.7-6.12-5.998-10.394-5.998
		c-1.913,0-3.795,0.483-5.499,1.363c2.928-5.654,0.926-12.687-4.646-15.903c-1.821-1.051-3.895-1.606-5.993-1.606
		c-4.092,0-7.896,2.121-10.088,5.541c-0.291-6.36-5.541-11.45-11.972-11.45c-6.431,0-11.681,5.089-11.972,11.449
		c-2.195-3.422-5.998-5.542-10.088-5.542c-2.102,0-4.176,0.557-5.996,1.609c-5.57,3.216-7.572,10.249-4.642,15.903
		c-1.702-0.88-3.586-1.365-5.503-1.365c-4.277,0-8.261,2.3-10.396,6c-3.213,5.566-1.436,12.651,3.919,16.086
		c-6.354,0.298-11.436,5.545-11.436,11.971c0,2.6,0.84,5.002,2.25,6.97c-5.556,4.416-9.024,11.21-9.024,18.618
		c0,13.107,10.664,23.771,23.771,23.771h47.602c10.956,0,20.27-7.138,23.553-17.005l0.162,0.093
		c1.822,1.053,3.896,1.609,5.997,1.609c4.277,0,8.262-2.3,10.396-6c1.603-2.776,2.028-6.009,1.198-9.105
		c-0.78-2.912-2.592-5.364-5.114-6.979c6.354-0.298,11.434-5.546,11.434-11.971C254.876,828.95,249.794,823.702,243.44,823.405z"/>
	<path fill="#FFFFFF" d="M192,1543c-31.43,0-57,25.57-57,57s25.57,57,57,57s57-25.57,57-57S223.43,1543,192,1543z"/>
	<path fill="#FFFFFF" d="M231.191,1307.23h-78.377c-6.617,0-12,5.383-12,12c0,3.199,1.266,6.103,3.314,8.256
		c-2.048,2.153-3.314,5.057-3.314,8.256c0,3.2,1.266,6.103,3.314,8.257c-2.048,2.153-3.314,5.057-3.314,8.257
		c0,3.199,1.266,6.103,3.314,8.256c-2.048,2.153-3.314,5.057-3.314,8.256c0,6.617,5.383,12,12,12h78.377c6.617,0,12-5.383,12-12
		c0-3.199-1.266-6.103-3.314-8.256c2.048-2.153,3.314-5.057,3.314-8.256c0-3.2-1.266-6.103-3.314-8.257
		c2.048-2.153,3.314-5.057,3.314-8.257c0-3.199-1.266-6.103-3.314-8.256c2.048-2.153,3.314-5.057,3.314-8.256
		C243.191,1312.613,237.809,1307.23,231.191,1307.23z"/>
</g>
<path fill="none" stroke="#ACACAC" stroke-width="8" stroke-linecap="round" stroke-linejoin="round" stroke-miterlimit="10" d="
	M222.999,446.645c-0.023,0-0.045,0.003-0.068,0.004c0.173-1.157,0.265-2.342,0.265-3.548c0-13.116-10.632-23.747-23.747-23.747
	c-9.922,0-18.419,6.088-21.97,14.73c-3.037-2.1-6.697-2.967-10.293-2.092c-5.643,1.373-9.457,6.618-9.964,12.81
	c-6.514,2.15-11.22,8.275-11.22,15.508c0,9.023,7.314,16.338,16.338,16.338h60.662c8.284,0,15-6.716,15-15
	C238,453.361,231.284,446.645,222.999,446.645z"/>
<path fill="none" stroke="#3AB8E9" stroke-width="8" stroke-linecap="round" stroke-linejoin="round" stroke-miterlimit="10" d="
	M151.755,309.269h43.098c6.313,0,11.43-5.118,11.43-11.43s-5.118-11.43-11.43-11.43s-11.43,5.118-11.43,11.43"/>
<path fill="none" stroke="#3AB8E9" stroke-width="8" stroke-linecap="round" stroke-linejoin="round" stroke-miterlimit="10" d="
	M144.5,322.902h83.57c6.313,0,11.43-5.118,11.43-11.43s-5.118-11.43-11.43-11.43s-11.43,5.118-11.43,11.43"/>
<path fill="none" stroke="#3AB8E9" stroke-width="8" stroke-linecap="round" stroke-linejoin="round" stroke-miterlimit="10" d="
	M166.285,336.535h50.591c4.71,0,8.529,3.819,8.529,8.529s-3.819,8.529-8.529,8.529s-8.529-3.819-8.529-8.529"/>
<circle fill="none" stroke="#FDBD00" stroke-width="8" stroke-linecap="round" stroke-linejoin="round" stroke-miterlimit="10" cx="192" cy="576" r="26.132"/>
<line fill="none" stroke="#FDBD00" stroke-width="8" stroke-linecap="round" stroke-linejoin="round" stroke-miterlimit="10" x1="192" y1="539.992" x2="192" y2="529.36"/>
<line fill="none" stroke="#FDBD00" stroke-width="8" stroke-linecap="round" stroke-linejoin="round" stroke-miterlimit="10" x1="192" y1="622.64" x2="192" y2="612.008"/>
<line fill="none" stroke="#FDBD00" stroke-width="8" stroke-linecap="round" stroke-linejoin="round" stroke-miterlimit="10" x1="173.997" y1="544.818" x2="168.681" y2="535.609"/>
<line fill="none" stroke="#FDBD00" stroke-width="8" stroke-linecap="round" stroke-linejoin="round" stroke-miterlimit="10" x1="215.319" y1="616.391" x2="210.003" y2="607.182"/>
<line fill="none" stroke="#FDBD00" stroke-width="8" stroke-linecap="round" stroke-linejoin="round" stroke-miterlimit="10" x1="160.826" y1="558.001" x2="151.609" y2="552.681"/>
<line fill="none" stroke="#FDBD00" stroke-width="8" stroke-linecap="round" stroke-linejoin="round" stroke-miterlimit="10" x1="232.391" y1="599.319" x2="223.174" y2="593.999"/>
<line fill="none" stroke="#FDBD00" stroke-width="8" stroke-linecap="round" stroke-linejoin="round" stroke-miterlimit="10" x1="210.001" y1="544.82" x2="215.319" y2="535.609"/>
<line fill="none" stroke="#FDBD00" stroke-width="8" stroke-linecap="round" stroke-linejoin="round" stroke-miterlimit="10" x1="168.681" y1="616.391" x2="173.994" y2="607.187"/>
<line fill="none" stroke="#FDBD00" stroke-width="8" stroke-linecap="round" stroke-linejoin="round" stroke-miterlimit="10" x1="223.184" y1="557.995" x2="232.391" y2="552.681"/>
<line fill="none" stroke="#FDBD00" stroke-width="8" stroke-linecap="round" stroke-linejoin="round" stroke-miterlimit="10" x1="151.609" y1="599.319" x2="160.816" y2="594.003"/>
<line fill="none" stroke="#FDBD00" stroke-width="8" stroke-linecap="round" stroke-linejoin="round" stroke-miterlimit="10" x1="228.007" y1="576" x2="238.639" y2="576"/>
<line fill="none" stroke="#FDBD00" stroke-width="8" stroke-linecap="round" stroke-linejoin="round" stroke-miterlimit="10" x1="145.361" y1="576" x2="155.992" y2="576"/>
<line fill="none" stroke="#4EDCE7" stroke-width="8" stroke-linecap="round" stroke-linejoin="round" stroke-miterlimit="10" x1="192" y1="912.5" x2="192" y2="960"/>
<line fill="none" stroke="#4EDCE7" stroke-width="8" stroke-linecap="round" stroke-linejoin="round" stroke-miterlimit="10" x1="177.858" y1="926.192" x2="192" y2="934.292"/>
<line fill="none" stroke="#4EDCE7" stroke-width="8" stroke-linecap="round" stroke-linejoin="round" stroke-miterlimit="10" x1="206.142" y1="926.192" x2="192" y2="934.292"/>
<line fill="none" stroke="#4EDCE7" stroke-width="8" stroke-linecap="round" stroke-linejoin="round" stroke-miterlimit="10" x1="192" y1="1007.5" x2="192" y2="960"/>
<line fill="none" stroke="#4EDCE7" stroke-width="8" stroke-linecap="round" stroke-linejoin="round" stroke-miterlimit="10" x1="177.858" y1="993.808" x2="192" y2="985.708"/>
<line fill="none" stroke="#4EDCE7" stroke-width="8" stroke-linecap="round" stroke-linejoin="round" stroke-miterlimit="10" x1="206.142" y1="993.808" x2="192" y2="985.708"/>
<line fill="none" stroke="#4EDCE7" stroke-width="8" stroke-linecap="round" stroke-linejoin="round" stroke-miterlimit="10" x1="150.542" y1="936.251" x2="192" y2="960"/>
<line fill="none" stroke="#4EDCE7" stroke-width="8" stroke-linecap="round" stroke-linejoin="round" stroke-miterlimit="10" x1="155.421" y1="955.247" x2="169.562" y2="947.146"/>
<line fill="none" stroke="#4EDCE7" stroke-width="8" stroke-linecap="round" stroke-linejoin="round" stroke-miterlimit="10" x1="169.562" y1="930.943" x2="169.562" y2="947.146"/>
<line fill="none" stroke="#4EDCE7" stroke-width="8" stroke-linecap="round" stroke-linejoin="round" stroke-miterlimit="10" x1="233.458" y1="983.749" x2="192" y2="960"/>
<line fill="none" stroke="#4EDCE7" stroke-width="8" stroke-linecap="round" stroke-linejoin="round" stroke-miterlimit="10" x1="214.438" y1="989.057" x2="214.438" y2="972.854"/>
<line fill="none" stroke="#4EDCE7" stroke-width="8" stroke-linecap="round" stroke-linejoin="round" stroke-miterlimit="10" x1="228.579" y1="964.753" x2="214.438" y2="972.854"/>
<line fill="none" stroke="#4EDCE7" stroke-width="8" stroke-linecap="round" stroke-linejoin="round" stroke-miterlimit="10" x1="233.458" y1="936.251" x2="192" y2="960"/>
<line fill="none" stroke="#4EDCE7" stroke-width="8" stroke-linecap="round" stroke-linejoin="round" stroke-miterlimit="10" x1="214.438" y1="930.943" x2="214.438" y2="947.146"/>
<line fill="none" stroke="#4EDCE7" stroke-width="8" stroke-linecap="round" stroke-linejoin="round" stroke-miterlimit="10" x1="228.579" y1="955.247" x2="214.438" y2="947.146"/>
<line fill="none" stroke="#4EDCE7" stroke-width="8" stroke-linecap="round" stroke-linejoin="round" stroke-miterlimit="10" x1="150.542" y1="983.749" x2="192" y2="960"/>
<line fill="none" stroke="#4EDCE7" stroke-width="8" stroke-linecap="round" stroke-linejoin="round" stroke-miterlimit="10" x1="155.421" y1="964.753" x2="169.562" y2="972.854"/>
<line fill="none" stroke="#4EDCE7" stroke-width="8" stroke-linecap="round" stroke-linejoin="round" stroke-miterlimit="10" x1="169.562" y1="989.057" x2="169.562" y2="972.854"/>
<path fill="none" stroke="#80B3CD" stroke-width="8" stroke-linecap="round" stroke-linejoin="round" stroke-miterlimit="10" d="
	M224.011,691.429c-0.023,0-0.047,0.003-0.072,0.003c0.179-1.196,0.274-2.418,0.274-3.664c0-13.543-10.978-24.521-24.521-24.521
	c-10.247,0-19.02,6.287-22.687,15.21c-3.137-2.169-6.915-3.064-10.629-2.161c-5.827,1.418-9.765,6.834-10.29,13.227
	c-6.726,2.219-11.586,8.544-11.586,16.014c0,9.317,7.553,16.87,16.87,16.87h62.64c8.554,0,15.49-6.935,15.49-15.49
	S232.566,691.429,224.011,691.429z"/>
<line fill="none" stroke="#80B3CD" stroke-width="8" stroke-linecap="round" stroke-linejoin="round" stroke-miterlimit="10" x1="167.444" y1="730.863" x2="160.753" y2="744.753"/>
<line fill="none" stroke="#80B3CD" stroke-width="8" stroke-linecap="round" stroke-linejoin="round" stroke-miterlimit="10" x1="183.156" y1="730.863" x2="176.464" y2="744.753"/>
<line fill="none" stroke="#80B3CD" stroke-width="8" stroke-linecap="round" stroke-linejoin="round" stroke-miterlimit="10" x1="198.869" y1="730.863" x2="192.176" y2="744.753"/>
<line fill="none" stroke="#80B3CD" stroke-width="8" stroke-linecap="round" stroke-linejoin="round" stroke-miterlimit="10" x1="214.579" y1="730.863" x2="207.888" y2="744.753"/>
<circle fill="none" stroke="#FF8B2A" stroke-width="8" stroke-linecap="round" stroke-linejoin="round" stroke-miterlimit="10" cx="198.763" cy="835.376" r="24.716"/>
<line fill="none" stroke="#FF8B2A" stroke-width="8" stroke-linecap="round" stroke-linejoin="round" stroke-miterlimit="10" x1="198.763" y1="801.318" x2="198.763" y2="791.263"/>
<line fill="none" stroke="#FF8B2A" stroke-width="8" stroke-linecap="round" stroke-linejoin="round" stroke-miterlimit="10" x1="181.735" y1="805.883" x2="176.706" y2="797.172"/>
<line fill="none" stroke="#FF8B2A" stroke-width="8" stroke-linecap="round" stroke-linejoin="round" stroke-miterlimit="10" x1="169.276" y1="818.352" x2="160.559" y2="813.319"/>
<line fill="none" stroke="#FF8B2A" stroke-width="8" stroke-linecap="round" stroke-linejoin="round" stroke-miterlimit="10" x1="236.965" y1="857.432" x2="228.249" y2="852.4"/>
<line fill="none" stroke="#FF8B2A" stroke-width="8" stroke-linecap="round" stroke-linejoin="round" stroke-miterlimit="10" x1="215.79" y1="805.885" x2="220.819" y2="797.172"/>
<line fill="none" stroke="#FF8B2A" stroke-width="8" stroke-linecap="round" stroke-linejoin="round" stroke-miterlimit="10" x1="228.257" y1="818.348" x2="236.965" y2="813.319"/>
<line fill="none" stroke="#FF8B2A" stroke-width="8" stroke-linecap="round" stroke-linejoin="round" stroke-miterlimit="10" x1="160.559" y1="857.432" x2="169.269" y2="852.404"/>
<line fill="none" stroke="#FF8B2A" stroke-width="8" stroke-linecap="round" stroke-linejoin="round" stroke-miterlimit="10" x1="232.818" y1="835.376" x2="242.876" y2="835.376"/>
<line fill="none" stroke="#FF8B2A" stroke-width="8" stroke-linecap="round" stroke-linejoin="round" stroke-miterlimit="10" x1="154.649" y1="835.376" x2="164.705" y2="835.376"/>
<path fill="#FFFFFF" d="M159.647,884.735c-13.107,0-23.771-10.664-23.771-23.771c0-8.933,4.951-16.729,12.254-20.791
	c2.889-13.912,15.241-24.398,29.997-24.398c8.665,0,16.68,3.599,22.355,9.665c0.25-0.009,0.501-0.013,0.752-0.013
	c1.697,0,3.396,0.204,5.046,0.605c7.001,1.703,12.59,6.842,15.281,13.602c6.479,4.561,10.509,12.05,10.509,20.281
	c0,13.686-11.135,24.821-24.821,24.821H159.647z"/>
<path fill="none" stroke="#FF8B2A" stroke-width="8" stroke-linecap="round" stroke-linejoin="round" stroke-miterlimit="10" d="
	M159.647,849.192c0.018,0,0.035,0.003,0.053,0.003c-0.136-0.908-0.208-1.839-0.208-2.785c0-10.292,8.344-18.635,18.635-18.635
	c7.786,0,14.455,4.778,17.241,11.559c2.384-1.649,5.256-2.328,8.077-1.642c4.429,1.077,7.421,5.194,7.82,10.052
	c5.111,1.687,8.805,6.493,8.805,12.17c0,7.08-5.739,12.821-12.821,12.821h-47.602c-6.501,0-11.771-5.27-11.771-11.771
	S153.144,849.192,159.647,849.192z"/>
<circle fill="#FF866F" stroke="#FF866F" stroke-miterlimit="10" cx="192" cy="1627.812" r="6"/>
<circle fill="none" stroke="#FF866F" stroke-width="8" stroke-miterlimit="10" cx="192" cy="1600" r="45"/>
<line fill="none" stroke="#FF866F" stroke-width="8" stroke-linecap="round" stroke-miterlimit="10" x1="192" y1="1612.738" x2="192" y2="1573.643"/>
<line fill="none" stroke="#C7C7C7" stroke-width="8" stroke-linecap="round" stroke-linejoin="round" stroke-miterlimit="10" x1="152.814" y1="1319.231" x2="231.191" y2="1319.231"/>
<line fill="none" stroke="#C7C7C7" stroke-width="8" stroke-linecap="round" stroke-linejoin="round" stroke-miterlimit="10" x1="152.814" y1="1335.743" x2="231.191" y2="1335.743"/>
<line fill="none" stroke="#C7C7C7" stroke-width="8" stroke-linecap="round" stroke-linejoin="round" stroke-miterlimit="10" x1="152.814" y1="1352.257" x2="231.191" y2="1352.257"/>
<line fill="none" stroke="#C7C7C7" stroke-width="8" stroke-linecap="round" stroke-linejoin="round" stroke-miterlimit="10" x1="152.814" y1="1368.769" x2="231.191" y2="1368.769"/>
</svg>
